<?xml version="1.0" standalone="no"?>
<!DOCTYPE svg PUBLIC "-//W3C//DTD SVG 20010904//EN"
 "http://www.w3.org/TR/2001/REC-SVG-20010904/DTD/svg10.dtd">
<svg version="1.0" xmlns="http://www.w3.org/2000/svg"
 width="500.000000pt" height="500.000000pt" viewBox="0 0 500.000000 500.000000"
 preserveAspectRatio="xMidYMid meet">
<metadata>
Created by potrace 1.14, written by Peter Selinger 2001-2017
</metadata>
<g transform="translate(0.000000,500.000000) scale(0.100000,-0.100000)"
fill="#000000" stroke="none">
<path d="M0 2500 l0 -2500 1305 0 1305 0 0 23 c0 12 14 49 30 81 17 32 30 60
30 62 0 2 -16 4 -35 4 -35 0 -35 0 -35 47 0 41 5 52 48 98 76 83 212 275 244
345 80 176 112 336 86 434 l-13 48 -120 66 c-66 35 -155 84 -197 108 -43 24
-86 44 -97 44 -32 0 -191 -59 -260 -97 -68 -36 -162 -105 -195 -142 -11 -11
-29 -21 -40 -21 -29 0 -266 -63 -351 -94 -39 -13 -117 -39 -175 -56 -58 -18
-175 -58 -260 -90 -89 -34 -181 -61 -216 -65 l-61 -7 -6 53 c-4 30 -7 102 -7
160 0 152 -4 167 -49 175 -218 39 -426 108 -489 163 -25 22 -30 80 -9 127 38
87 198 340 331 524 34 47 118 164 186 260 68 96 140 198 161 226 50 67 85 196
69 252 -5 20 -10 59 -10 86 0 47 2 51 64 110 35 33 90 81 123 106 57 42 69 60
202 290 77 135 180 315 227 400 47 85 141 238 208 340 129 193 199 321 291
530 91 206 83 195 136 198 31 2 50 -2 58 -12 7 -8 28 -77 47 -153 36 -145 64
-377 64 -528 0 -54 5 -93 15 -111 10 -20 15 -60 15 -126 0 -72 3 -98 13 -98
16 0 270 77 305 93 84 37 562 391 687 509 50 46 124 113 165 148 159 135 319
279 425 382 l110 108 -2162 0 -2163 0 0 -2500z"/>
<path d="M4310 4924 c-70 -71 -336 -312 -495 -449 -38 -33 -109 -97 -157 -142
-167 -154 -635 -493 -728 -525 -64 -22 -271 -83 -315 -92 l-30 -7 3 111 c3 89
1 116 -12 135 -12 17 -16 49 -16 112 -1 195 -38 459 -87 618 -28 92 -60 98
-94 18 -134 -312 -209 -453 -355 -673 -67 -102 -157 -248 -200 -325 -77 -139
-149 -267 -299 -525 -67 -117 -86 -141 -137 -180 -33 -25 -89 -73 -125 -107
-60 -58 -65 -65 -59 -95 19 -102 18 -144 -4 -221 -23 -83 -28 -91 -306 -477
-242 -337 -428 -628 -440 -688 -5 -24 0 -32 38 -58 24 -18 66 -41 93 -53 44
-18 279 -78 376 -95 45 -8 49 -23 49 -181 0 -62 3 -132 6 -157 l6 -45 42 8
c34 6 170 53 327 114 20 7 74 25 120 39 46 13 124 38 173 56 48 17 151 47 229
66 104 27 147 42 166 61 52 49 151 114 233 153 84 39 214 80 256 80 12 0 63
-24 112 -53 49 -28 139 -79 200 -112 62 -33 117 -69 123 -80 8 -13 12 -69 11
-150 0 -143 -18 -216 -89 -369 -34 -74 -204 -315 -262 -371 -62 -60 -32 -82
70 -51 l46 14 -38 -47 c-37 -43 -70 -101 -91 -156 -8 -22 -7 -25 13 -25 17 0
28 14 51 60 15 33 55 89 88 125 38 41 58 71 54 80 -7 19 -17 19 -86 0 -30 -8
-56 -15 -57 -15 -4 0 102 143 155 209 61 76 118 189 157 311 23 70 28 104 29
195 0 61 -2 125 -6 144 -7 29 -6 32 10 26 9 -4 41 -11 70 -16 78 -11 169 -58
240 -124 72 -67 105 -111 168 -228 50 -93 55 -90 20 12 -33 99 -69 157 -141
226 -97 94 -216 154 -304 155 -12 0 -79 32 -147 70 -68 39 -172 94 -232 122
l-107 52 75 8 c41 4 167 6 279 5 174 -2 205 0 209 13 6 19 31 51 84 108 l42
46 80 2 c63 1 104 -5 186 -27 125 -35 219 -81 437 -215 l163 -99 -62 -5 c-79
-6 -89 -28 -36 -75 45 -40 85 -92 146 -193 l50 -83 -19 -59 c-27 -87 -42 -224
-35 -315 8 -106 74 -301 128 -378 19 -26 19 -30 4 -74 -9 -26 -16 -50 -16 -55
0 -4 45 -8 100 -8 l101 0 -3 67 c-2 65 -4 70 -45 114 -28 30 -60 83 -90 150
l-47 104 -4 143 -4 144 27 -18 27 -18 -4 42 c-3 33 0 41 10 37 33 -13 62 -16
62 -8 0 12 -35 59 -91 125 -25 29 -62 81 -83 115 -20 34 -57 89 -81 122 l-45
61 70 0 c58 0 71 3 79 19 13 23 5 31 -69 64 l-55 25 40 2 c22 1 49 5 60 9 17
7 12 10 -25 20 -170 45 -231 73 -370 171 -92 65 -194 109 -319 139 -43 10 -88
24 -101 31 l-22 12 21 14 c26 19 17 40 -21 48 l-30 6 31 29 c17 16 31 32 31
36 0 11 -42 -5 -82 -31 -44 -28 -49 -51 -13 -60 14 -3 25 -10 25 -14 0 -4 -26
-23 -59 -43 -32 -20 -86 -66 -119 -101 l-60 -65 -24 22 c-13 12 -47 69 -75
127 -28 58 -70 125 -92 150 -22 25 -58 72 -79 105 -77 118 -253 294 -351 352
-51 30 -186 81 -248 94 -55 11 -85 31 -116 77 l-24 37 71 18 c101 25 109 46
26 67 -101 25 -129 29 -215 30 -49 0 -139 3 -200 6 l-110 7 -2 40 c-2 52 -30
125 -53 137 -50 27 -100 -2 -139 -78 -26 -51 -27 -126 -1 -202 17 -51 17 -56
2 -68 -10 -7 -17 -18 -17 -24 0 -5 -42 -33 -94 -62 -51 -28 -130 -81 -175
-118 -167 -139 -283 -222 -364 -261 -45 -22 -85 -37 -88 -35 -5 6 101 163 220
326 37 52 84 119 104 150 19 31 46 65 57 74 59 46 95 231 61 312 -9 21 -16 42
-16 46 0 4 93 74 208 155 238 170 276 201 428 346 111 106 172 153 292 222 53
31 95 44 246 77 182 39 320 74 406 105 54 19 61 25 -135 -122 -88 -67 -190
-149 -227 -182 -37 -34 -93 -76 -125 -93 -102 -54 -123 -79 -36 -43 20 8 38
13 41 10 2 -2 28 15 56 39 74 63 564 429 674 503 51 35 101 63 111 63 11 0 48
9 83 21 34 11 134 35 220 52 l158 33 -113 -116 c-80 -81 -131 -143 -172 -210
-124 -203 -281 -423 -377 -528 -58 -64 -37 -65 28 -1 65 63 66 52 7 -69 -19
-41 -32 -76 -29 -79 3 -3 24 11 46 31 22 20 42 36 45 36 3 0 -4 -17 -15 -37
-26 -49 -25 -61 1 -37 31 27 64 103 50 117 -7 7 -16 6 -28 -5 -38 -32 -40 -25
-12 63 25 79 40 106 117 208 49 65 122 174 163 242 65 109 92 143 234 289 92
95 166 164 175 162 8 -2 40 -4 70 -5 64 -3 140 -46 202 -115 68 -75 73 -92 75
-250 2 -78 7 -152 13 -163 10 -17 3 -31 -42 -92 -111 -151 -374 -440 -442
-486 -22 -15 -56 -33 -74 -39 -28 -10 -34 -9 -39 6 -8 22 -34 52 -45 52 -4 0
-8 -13 -8 -28 0 -16 -7 -50 -16 -76 -9 -26 -14 -49 -11 -52 7 -7 37 85 37 115
1 25 1 25 15 7 9 -12 15 -42 15 -75 0 -40 3 -52 10 -41 5 8 10 27 10 41 0 21
9 29 54 48 29 12 73 39 97 59 27 23 41 30 36 19 -6 -15 -3 -17 16 -11 47 14
255 128 313 171 17 13 34 23 38 23 11 0 -43 -101 -89 -165 -39 -55 -66 -82
-193 -198 -69 -62 -51 -97 26 -49 70 43 192 102 192 93 0 -5 -20 -36 -45 -70
-45 -62 -140 -133 -221 -167 -20 -8 -38 -23 -41 -33 -3 -10 -18 -29 -35 -41
-50 -37 -15 -45 84 -20 93 23 121 46 82 68 -13 7 -8 14 28 35 25 14 71 55 104
90 60 64 150 218 139 237 -8 13 -42 13 -50 1 -3 -5 -28 -24 -56 -41 l-51 -31
40 48 c22 26 59 80 82 118 43 69 190 378 190 396 0 6 20 -4 46 -21 76 -53 261
-136 416 -188 l147 -49 -72 -22 c-40 -12 -94 -26 -122 -29 -75 -11 -69 -36 20
-87 107 -61 131 -81 179 -148 25 -34 61 -78 80 -96 34 -33 36 -34 36 -12 0 13
-11 32 -25 43 -14 11 -32 36 -41 56 -20 49 -85 116 -158 162 l-59 38 44 12
c98 25 215 65 229 77 23 20 3 31 -116 62 -169 45 -584 211 -584 234 0 5 22 68
49 140 73 195 309 909 331 1002 11 44 28 136 40 205 11 69 23 135 25 148 l5
22 -178 0 -178 0 -74 -76z m-1843 -1150 c43 -19 79 -37 81 -39 2 -2 -1 -12 -7
-22 -10 -19 -126 -51 -211 -59 -75 -6 -107 -17 -189 -66 -137 -81 -189 -120
-306 -228 -106 -99 -195 -174 -280 -236 l-40 -29 19 30 c11 17 48 78 83 137
35 59 73 112 84 118 11 6 56 40 99 76 44 36 101 74 126 85 26 11 115 64 198
118 168 109 235 149 253 150 7 1 48 -15 90 -35z m-811 -1120 c8 -43 0 -117
-16 -159 l-12 -30 -13 35 c-19 50 -18 141 1 168 22 31 32 28 40 -14z m372
-267 c3 -45 1 -50 -50 -103 -62 -66 -122 -109 -177 -129 -51 -18 -71 -4 -111
75 -22 44 -30 73 -30 114 0 30 5 58 10 61 6 4 10 -11 10 -37 0 -32 9 -58 31
-92 16 -27 32 -47 34 -45 7 8 -8 129 -16 129 -19 0 -8 47 14 58 40 20 51 21
167 19 l115 -2 3 -48z m347 -170 c110 -38 163 -69 261 -155 155 -136 218 -219
270 -359 29 -78 30 -130 3 -182 -11 -22 -18 -45 -14 -51 4 -6 -10 -10 -37 -10
-90 0 -355 -41 -433 -66 -140 -47 -296 -136 -355 -204 -9 -10 -36 -20 -65 -24
-54 -7 -291 -72 -367 -102 l-47 -18 -37 26 c-47 34 -118 120 -145 176 -14 29
-23 71 -27 129 l-5 86 49 -6 c194 -24 254 -20 254 20 0 21 40 77 119 163 54
60 81 81 123 97 29 11 105 44 168 73 63 29 171 73 240 97 112 39 119 43 73 39
-98 -9 -468 -143 -560 -203 -30 -20 -158 -174 -183 -220 l-20 -38 -148 -2
c-81 0 -183 -4 -228 -8 l-80 -6 -28 52 c-26 48 -28 57 -22 122 8 82 58 239 90
280 57 73 245 191 354 222 26 7 58 16 70 21 l24 7 -17 -33 c-23 -45 -8 -57 45
-36 22 9 52 16 66 16 14 0 53 13 87 28 34 16 86 32 116 36 30 4 70 14 90 23
109 47 198 50 316 10z"/>
<path d="M4745 4833 c-38 -234 -53 -286 -235 -823 -89 -261 -163 -484 -166
-495 -5 -17 11 -27 116 -73 66 -29 162 -69 213 -88 91 -35 288 -94 314 -94 11
0 13 154 13 870 l0 870 -113 0 -114 0 -28 -167z"/>
<path d="M4900 3110 c-47 -15 -80 -28 -74 -29 22 -2 115 -103 139 -152 14 -27
28 -49 30 -49 3 0 5 59 5 130 0 72 -3 130 -7 129 -5 0 -46 -13 -93 -29z"/>
<path d="M3561 2824 c-19 -8 -32 -17 -29 -19 3 -3 25 3 49 14 24 11 37 20 29
20 -8 0 -30 -6 -49 -15z"/>
<path d="M4924 2735 c-4 -9 10 -32 35 -60 l41 -45 0 60 0 60 -35 0 c-23 0 -38
-6 -41 -15z"/>
<path d="M3710 619 c0 -47 93 -269 107 -255 5 5 -87 247 -99 261 -5 5 -8 3 -8
-6z"/>
<path d="M3840 422 c0 -5 6 -14 13 -20 7 -6 24 -34 37 -62 27 -57 39 -61 16
-5 -16 38 -66 104 -66 87z"/>
<path d="M3939 323 c5 -10 22 -29 37 -43 26 -23 25 -22 -5 18 -34 43 -49 55
-32 25z"/>
</g>
</svg>
